<svg xmlns="http://www.w3.org/2000/svg" viewBox="0 0 500 500"><g id="freepik--background-complete--inject-9"><rect y="382.4" width="500" height="0.25" style="fill:#ebebeb"></rect><rect x="416.78" y="398.49" width="33.12" height="0.25" style="fill:#ebebeb"></rect><rect x="322.53" y="401.21" width="8.69" height="0.25" style="fill:#ebebeb"></rect><rect x="396.59" y="389.21" width="19.19" height="0.25" style="fill:#ebebeb"></rect><rect x="52.46" y="390.89" width="43.19" height="0.25" style="fill:#ebebeb"></rect><rect x="104.56" y="390.89" width="6.33" height="0.25" style="fill:#ebebeb"></rect><rect x="131.47" y="395.11" width="93.68" height="0.25" style="fill:#ebebeb"></rect><path d="M237,337.8H43.91a5.71,5.71,0,0,1-5.7-5.71V60.66A5.71,5.71,0,0,1,43.91,55H237a5.71,5.71,0,0,1,5.71,5.71V332.09A5.71,5.71,0,0,1,237,337.8ZM43.91,55.2a5.46,5.46,0,0,0-5.45,5.46V332.09a5.46,5.46,0,0,0,5.45,5.46H237a5.47,5.47,0,0,0,5.46-5.46V60.66A5.47,5.47,0,0,0,237,55.2Z" style="fill:#ebebeb"></path><path d="M453.31,337.8H260.21a5.72,5.72,0,0,1-5.71-5.71V60.66A5.72,5.72,0,0,1,260.21,55h193.1A5.71,5.71,0,0,1,459,60.66V332.09A5.71,5.71,0,0,1,453.31,337.8ZM260.21,55.2a5.47,5.47,0,0,0-5.46,5.46V332.09a5.47,5.47,0,0,0,5.46,5.46h193.1a5.47,5.47,0,0,0,5.46-5.46V60.66a5.47,5.47,0,0,0-5.46-5.46Z" style="fill:#ebebeb"></path><rect x="341.51" y="82.56" width="7.78" height="299.84" transform="translate(690.81 464.95) rotate(180)" style="fill:#f0f0f0"></rect><rect x="158.47" y="82.56" width="183.05" height="285.44" style="fill:#fafafa;opacity:0.5"></rect><rect x="62.24" y="82.56" width="7.78" height="299.84" transform="translate(132.26 464.95) rotate(180)" style="fill:#f0f0f0"></rect><rect x="150.69" y="82.56" width="7.78" height="299.84" transform="translate(309.16 464.95) rotate(180)" style="fill:#f0f0f0"></rect><rect x="70.02" y="82.56" width="84.56" height="285.44" transform="translate(224.6 450.56) rotate(180)" style="fill:#e6e6e6"></rect><rect x="207.39" y="-80.16" width="7.78" height="317.64" transform="translate(289.95 -132.61) rotate(90)" style="fill:#f0f0f0"></rect><rect x="337.03" y="49.48" width="7.78" height="58.37" transform="translate(419.59 -262.25) rotate(90)" style="fill:#e0e0e0"></rect><rect x="243.45" y="170.57" width="7.78" height="245.53" transform="translate(540.67 45.99) rotate(90)" style="fill:#f0f0f0"></rect><rect x="337.03" y="264.15" width="7.78" height="58.37" transform="translate(634.25 -47.59) rotate(90)" style="fill:#e0e0e0"></rect><rect x="198.35" y="122.33" width="115.38" height="113.67" transform="translate(512.09 358.33) rotate(180)" style="fill:#f0f0f0"></rect><rect x="203.21" y="125.48" width="105.67" height="107.38" transform="translate(435.21 -76.88) rotate(90)" style="fill:#fff"></rect><path d="M426.34,257.61v-5.67a7.84,7.84,0,0,1,7.84-7.83H408.06v21.33h26.12A7.84,7.84,0,0,1,426.34,257.61Z" style="fill:#e0e0e0"></path><path d="M410.37,251.94v5.67a7.84,7.84,0,0,0,7.83,7.83h21.95v117H388.48v-143h51.67v4.67H418.2A7.84,7.84,0,0,0,410.37,251.94Z" style="fill:#f5f5f5"></path><rect x="388.48" y="276.33" width="29.78" height="69.18" style="fill:#fafafa"></rect></g><g id="freepik--Shadow--inject-9"><ellipse id="freepik--path--inject-9" cx="250" cy="416.24" rx="193.89" ry="11.32" style="fill:#f5f5f5"></ellipse></g><g id="freepik--Character--inject-9"><path d="M281.44,134.9c13.52-11.46,3-28.52,22.77-42.54s61.32-8.36,67,15.47,42.82,32.5,52.19,68.06-20.59,58.44-4.76,80.89,25.12,55.11-17.37,68-88-8.45-86.45-57.56-24.88-43.7-37.79-74C263.89,162.33,306,144.51,281.44,134.9Z" style="fill:#fff"></path><path d="M281.44,134.9c13.52-11.46,3-28.52,22.77-42.54s61.32-8.36,67,15.47,42.82,32.5,52.19,68.06-20.59,58.44-4.76,80.89,25.12,55.11-17.37,68-88-8.45-86.45-57.56-24.88-43.7-37.79-74C263.89,162.33,306,144.51,281.44,134.9Z" style="fill:#00AF90;opacity:0.2"></path><path d="M352.16,135.06c-.67.81.24,2.09-2.52,2.32l-1.72.12a16,16,0,0,0-1-5.05l.18-.06c2.42-.77,2.1.62,2.95,1.08s.27-1.87-.17-2.92-1.66-3.11-1.94-2.19.93,1.69-1.33,2.85l-.17.09a16.38,16.38,0,0,0-2.87-4.28l1.3-1.13c2.11-1.78,2.38-.24,3.43-.14s-.52-2-1.4-2.87-3-2.45-2.87-1.4,1.64,1.31-.15,3.43l-1.12,1.3a16.38,16.38,0,0,0-4.28-2.87l.09-.18c1.16-2.25,1.93-1,2.85-1.32s-1.13-1.51-2.19-1.94-3.38-1-2.92-.18,1.85.54,1.08,3l-.06.19a16,16,0,0,0-5.06-1c0-.55.08-1.12.13-1.72.23-2.76,1.51-1.86,2.32-2.53s-1.77-1-3-1-3.84.38-3,1,2.09-.23,2.32,2.53c.05.6.09,1.17.12,1.72a16,16,0,0,0-5.05,1l-.06-.19c-.77-2.41.62-2.1,1.08-3s-1.87-.26-2.92.18-3.11,1.66-2.19,1.94,1.69-.93,2.85,1.32l.09.18a16.38,16.38,0,0,0-4.28,2.87l-1.13-1.3c-1.78-2.12-.24-2.38-.14-3.43s-2,.51-2.87,1.4-2.45,3-1.4,2.87,1.31-1.64,3.43.14l1.3,1.13A16.14,16.14,0,0,0,317,131.3l-.18-.09c-2.25-1.16-1-1.93-1.32-2.85s-1.51,1.13-1.94,2.19-1,3.37-.18,2.92.54-1.85,2.95-1.08l.19.06a16,16,0,0,0-1,5.05l-1.72-.12c-2.76-.23-1.86-1.51-2.53-2.32s-1,1.77-1,3,.38,3.83,1,3-.23-2.09,2.53-2.32l1.72-.13a16,16,0,0,0,1,5.06l-.19.06c-2.41.77-2.1-.63-2.95-1.08s-.26,1.86.18,2.92,1.66,3.11,1.94,2.19-.93-1.69,1.32-2.85l.18-.09a16.14,16.14,0,0,0,2.87,4.28l-1.3,1.12c-2.12,1.79-2.38.25-3.43.15s.51,2,1.4,2.87,3,2.45,2.87,1.4-1.64-1.32.14-3.43c.39-.46.77-.89,1.13-1.3a16.38,16.38,0,0,0,4.28,2.87l-.09.17c-1.16,2.26-1.93,1-2.85,1.33s1.13,1.5,2.19,1.94,3.37,1,2.92.17-1.85-.53-1.08-3l.06-.18a16,16,0,0,0,5.05,1c0,.54-.07,1.12-.12,1.72-.23,2.76-1.51,1.86-2.32,2.52s1.77,1.05,3,1.05,3.83-.38,3-1.05-2.09.24-2.32-2.52c-.05-.6-.09-1.18-.13-1.72a16,16,0,0,0,5.06-1l.06.18c.77,2.42-.63,2.1-1.08,3s1.86.27,2.92-.17,3.11-1.66,2.19-1.94-1.69.93-2.85-1.33l-.09-.17a16.38,16.38,0,0,0,4.28-2.87c.36.41.74.84,1.12,1.3,1.79,2.11.25,2.38.15,3.43s2-.52,2.87-1.4,2.45-3,1.4-2.87-1.32,1.64-3.43-.15c-.46-.38-.89-.76-1.3-1.12a16.38,16.38,0,0,0,2.87-4.28l.17.09c2.26,1.16,1.05,1.93,1.33,2.85s1.5-1.13,1.94-2.19,1-3.37.17-2.92-.53,1.85-2.95,1.08l-.18-.06a16,16,0,0,0,1-5.06l1.72.13c2.76.23,1.85,1.51,2.52,2.32s1-1.77,1-3S352.83,134.24,352.16,135.06Z" style="fill:#00AF90"></path><path d="M341,212c-.61,1.08.7,2.38-2.46,3.21l-2,.49a19.3,19.3,0,0,0-2.18-5.67l.2-.11c2.64-1.38,2.56.3,3.64.66s-.07-2.22-.79-3.36-2.57-3.27-2.7-2.14,1.42,1.77-1,3.58l-.18.13a19.25,19.25,0,0,0-4.21-4.38c.4-.5.83-1,1.28-1.57,2.09-2.5,2.72-.77,3.95-.86s-1-2.21-2.2-3.06-4-2.23-3.63-1,2.18,1.19.54,4c-.36.6-.71,1.19-1.05,1.74a19.11,19.11,0,0,0-5.55-2.47,1.42,1.42,0,0,0,.07-.22c.89-2.85,2-1.6,3-2.11s-1.62-1.52-2.94-1.81-4.12-.5-3.42.39,2.26.25,1.85,3.21l0,.22a19,19,0,0,0-6.07-.12c-.07-.64-.14-1.32-.21-2-.29-3.25,1.38-2.46,2.19-3.4s-2.27-.86-3.72-.6-4.38,1.22-3.3,1.83,2.38-.7,3.22,2.46c.17.68.34,1.34.49,2a19.3,19.3,0,0,0-5.67,2.18c0-.06-.07-.13-.11-.2-1.38-2.65.3-2.57.66-3.64s-2.22.07-3.36.79-3.27,2.57-2.14,2.7,1.76-1.42,3.57,1l.14.18a19.25,19.25,0,0,0-4.38,4.21l-1.57-1.28c-2.51-2.09-.77-2.72-.87-4s-2.2,1-3.05,2.21-2.23,4-1,3.62,1.2-2.17,4-.53l1.73,1a19.14,19.14,0,0,0-2.46,5.56l-.22-.07c-2.85-.89-1.6-2-2.12-3s-1.51,1.62-1.81,2.93-.5,4.13.4,3.43.24-2.26,3.2-1.85l.23,0a19,19,0,0,0-.12,6.07l-2,.2c-3.25.3-2.47-1.37-3.41-2.18s-.85,2.27-.6,3.72,1.22,4.38,1.83,3.3-.69-2.39,2.46-3.22c.68-.18,1.35-.34,2-.49a19,19,0,0,0,2.18,5.67l-.2.11c-2.65,1.38-2.57-.3-3.65-.66s.08,2.22.8,3.36,2.56,3.27,2.7,2.14-1.42-1.77,1-3.58l.18-.13a19.25,19.25,0,0,0,4.21,4.38c-.4.5-.83,1-1.28,1.57-2.1,2.5-2.72.77-4,.86s1,2.21,2.21,3.06,3.95,2.23,3.62,1-2.17-1.19-.53-4c.35-.6.71-1.19,1-1.74a19.23,19.23,0,0,0,5.55,2.47l-.06.22c-.9,2.85-2,1.6-3,2.11s1.62,1.52,2.93,1.81,4.13.5,3.43-.39-2.26-.24-1.86-3.2l0-.23a19,19,0,0,0,6.08.12c.07.64.14,1.32.2,2,.3,3.25-1.37,2.46-2.18,3.4s2.27.86,3.72.6,4.37-1.22,3.29-1.83-2.38.7-3.21-2.46c-.18-.68-.34-1.34-.49-2a19.41,19.41,0,0,0,5.67-2.18l.1.2c1.39,2.65-.3,2.57-.65,3.64s2.22-.07,3.36-.79,3.27-2.56,2.14-2.7-1.77,1.42-3.58-1l-.14-.18a19.09,19.09,0,0,0,4.39-4.21l1.57,1.28c2.5,2.1.77,2.72.86,4s2.21-1,3.06-2.21,2.23-4,1-3.62-1.19,2.17-4,.53l-1.74-1a19.17,19.17,0,0,0,2.47-5.56l.22.07c2.85.89,1.6,2,2.11,3s1.52-1.62,1.81-2.93.5-4.13-.39-3.43-.25,2.26-3.21,1.85l-.22,0a19,19,0,0,0,.12-6.07l2-.2c3.25-.3,2.46,1.37,3.4,2.18s.86-2.27.6-3.72S341.62,210.9,341,212Z" style="fill:#00AF90"></path><path d="M406,190c-.65.46-.24,1.58-2.31,1.19-.44-.08-.87-.16-1.27-.25a12,12,0,0,0,.28-3.89h.15c1.92-.08,1.41.88,1.94,1.38s.56-1.31.46-2.17-.6-2.6-1-2,.34,1.42-1.54,1.82l-.15,0a12,12,0,0,0-1.24-3.7l1.18-.57c1.9-.88,1.79.3,2.53.59s0-1.56-.44-2.38-1.69-2.38-1.83-1.6.94,1.29-.79,2.48c-.37.25-.73.5-1.08.72a12.34,12.34,0,0,0-2.55-2.95l.1-.11c1.3-1.41,1.62-.38,2.35-.4s-.53-1.32-1.21-1.85-2.26-1.42-2.1-.71,1.24.76.2,2.37l-.08.12a11.8,11.8,0,0,0-3.5-1.73c.14-.4.28-.81.44-1.23.72-2,1.47-1.06,2.2-1.38s-1.09-1.12-2-1.37-2.87-.49-2.41.16,1.57.25,1.19,2.31c-.08.44-.17.87-.25,1.28a12.31,12.31,0,0,0-3.9-.29v-.15c-.08-1.92.88-1.41,1.38-1.94s-1.31-.56-2.17-.45-2.6.59-2,1,1.42-.34,1.82,1.53l0,.15a12.24,12.24,0,0,0-3.7,1.24c-.18-.37-.37-.76-.56-1.17-.88-1.91.3-1.79.58-2.54s-1.56,0-2.38.45-2.38,1.68-1.59,1.82,1.28-.94,2.47.79c.26.37.5.74.73,1.08a12.2,12.2,0,0,0-3,2.55l-.11-.1c-1.41-1.3-.37-1.62-.39-2.35s-1.33.53-1.86,1.21-1.42,2.26-.71,2.1.76-1.24,2.37-.2l.12.08a12.43,12.43,0,0,0-1.73,3.5l-1.23-.43c-2-.73-1.06-1.48-1.38-2.21s-1.12,1.09-1.37,2-.49,2.88.16,2.42.25-1.58,2.31-1.2l1.28.26a12.23,12.23,0,0,0-.29,3.89h-.14c-1.92.08-1.41-.87-1.94-1.37s-.57,1.3-.46,2.16.59,2.61,1,2-.34-1.42,1.54-1.82l.14,0a12.52,12.52,0,0,0,1.24,3.7l-1.17.56c-1.9.89-1.79-.29-2.53-.58s0,1.56.44,2.38,1.69,2.38,1.82,1.6-.94-1.29.79-2.48c.37-.26.74-.5,1.08-.72a12.81,12.81,0,0,0,2.55,2.95l-.1.11c-1.3,1.41-1.61.37-2.34.39s.52,1.33,1.21,1.86,2.26,1.42,2.1.71-1.25-.76-.2-2.37a.83.83,0,0,1,.08-.12,12.37,12.37,0,0,0,3.49,1.73c-.13.39-.27.81-.43,1.23-.72,2-1.48,1.06-2.2,1.38s1.08,1.12,2,1.37,2.88.49,2.42-.16-1.57-.25-1.19-2.31c.08-.44.17-.87.25-1.28a12.27,12.27,0,0,0,3.89.29s0,.1,0,.15c.08,1.91-.88,1.41-1.38,1.94s1.31.56,2.17.45,2.6-.59,2-1-1.41.34-1.81-1.53l0-.15a12.62,12.62,0,0,0,3.7-1.24c.18.37.37.76.56,1.17.88,1.91-.3,1.79-.58,2.54s1.55,0,2.38-.45,2.38-1.68,1.59-1.82-1.29.94-2.48-.79l-.72-1.08A12.18,12.18,0,0,0,399.9,196a.52.52,0,0,1,.11.1c1.41,1.3.38,1.61.4,2.34s1.32-.52,1.85-1.21,1.43-2.26.72-2.09-.77,1.24-2.37.19a.57.57,0,0,1-.13-.08,12,12,0,0,0,1.74-3.49l1.23.43c2,.72,1.05,1.48,1.38,2.21s1.11-1.09,1.36-2S406.69,189.54,406,190Z" style="fill:#00AF90"></path><path d="M371.36,272c-.3.65.51,1.34-1.28,2l-1.11.38a11.1,11.1,0,0,0-1.51-3.18l.11-.07c1.46-.92,1.49.06,2.13.21s-.14-1.27-.61-1.9-1.63-1.77-1.66-1.11.91.95-.39,2.1l-.1.09a11,11,0,0,0-2.62-2.34c.21-.31.43-.63.67-1,1.09-1.54,1.53-.57,2.24-.68s-.68-1.23-1.41-1.67-2.39-1.11-2.14-.43,1.31.59.49,2.29c-.18.37-.36.72-.53,1a11,11,0,0,0-3.31-1.17l0-.13c.38-1.69,1.09-1,1.66-1.36s-1-.8-1.78-.91-2.41-.1-2,.38,1.31,0,1.21,1.77v.13a11.06,11.06,0,0,0-3.52.2c-.07-.36-.14-.75-.21-1.15-.31-1.87.69-1.49,1.11-2.07s-1.35-.39-2.17-.18-2.47.9-1.82,1.21,1.34-.51,2,1.27c.14.39.26.76.38,1.12a11.1,11.1,0,0,0-3.18,1.51l-.07-.11c-.92-1.47.06-1.5.21-2.13s-1.28.14-1.9.61-1.77,1.62-1.12,1.65,1-.9,2.11.39l.09.1a11.05,11.05,0,0,0-2.34,2.63l-1-.67c-1.55-1.09-.57-1.53-.68-2.24s-1.23.68-1.67,1.41-1.11,2.38-.43,2.14.59-1.31,2.29-.49l1.05.52a11,11,0,0,0-1.17,3.32l-.13,0c-1.69-.39-1-1.1-1.36-1.66s-.8,1-.91,1.78-.11,2.4.38,2,0-1.32,1.77-1.22h.13a11,11,0,0,0,.2,3.51c-.36.07-.75.15-1.15.21-1.87.32-1.49-.68-2.07-1.1s-.39,1.35-.18,2.17.9,2.47,1.21,1.82-.51-1.34,1.27-2l1.12-.38a11,11,0,0,0,1.51,3.18l-.11.07c-1.47.92-1.5-.06-2.13-.21s.14,1.27.61,1.9,1.62,1.77,1.65,1.11-.9-.95.39-2.11l.1-.08a11.05,11.05,0,0,0,2.63,2.34c-.21.31-.43.63-.67,1-1.09,1.54-1.53.57-2.24.68s.67,1.23,1.41,1.66,2.38,1.11,2.14.44-1.31-.59-.49-2.29c.18-.37.35-.72.52-1a11.32,11.32,0,0,0,3.32,1.17l0,.13c-.39,1.69-1.1,1-1.66,1.36s1,.8,1.78.91,2.4.1,2-.38-1.32,0-1.22-1.77a.57.57,0,0,0,0-.13,11,11,0,0,0,3.51-.2c.07.36.14.75.21,1.15.32,1.87-.68,1.49-1.1,2.07s1.34.39,2.17.18,2.47-.91,1.82-1.21-1.34.51-2-1.28l-.37-1.11a11.23,11.23,0,0,0,3.18-1.51l.07.11c.92,1.46-.06,1.49-.22,2.13s1.28-.14,1.91-.61,1.77-1.63,1.11-1.65-.95.9-2.11-.4a.39.39,0,0,1-.08-.1,11,11,0,0,0,2.34-2.62l1,.67c1.54,1.09.57,1.53.68,2.24s1.23-.68,1.66-1.41,1.11-2.38.44-2.14-.59,1.31-2.29.49l-1.05-.53a11.16,11.16,0,0,0,1.17-3.31l.13,0c1.68.38,1,1.1,1.36,1.66s.8-1,.91-1.78.1-2.4-.38-2,0,1.31-1.77,1.22h-.13a11,11,0,0,0-.2-3.51c.36-.08.75-.15,1.15-.21,1.86-.32,1.49.68,2.07,1.1s.39-1.35.17-2.17S371.66,271.38,371.36,272Z" style="fill:#00AF90"></path><path d="M155.56,106.31H144.85c-2.49,0-4.66,2.62-4.74,6s2,6.41,4.55,6.41a3.86,3.86,0,0,0,2.85-1.38,3.45,3.45,0,0,1,2.47-1.27h.39a3.12,3.12,0,0,1,2.28,1.21,3.72,3.72,0,0,0,3.95,1.28c1.69-.51,3.05-2.39,3.41-4.7C160.63,109.85,158.4,106.31,155.56,106.31Z" style="fill:#00AF90"></path><path d="M153.08,106.84h-9.8c-2.27,0-4.26,2.4-4.33,5.51s1.82,5.86,4.16,5.86a3.53,3.53,0,0,0,2.61-1.26,3.12,3.12,0,0,1,2.25-1.17h.36a2.85,2.85,0,0,1,2.09,1.11,3.4,3.4,0,0,0,3.62,1.17,5.15,5.15,0,0,0,3.11-4.3C157.72,110.08,155.68,106.84,153.08,106.84Z" style="fill:#fff;opacity:0.8"></path><path d="M126.32,150.89l-1.45,1.79-1.5,1.91c-1,1.28-2,2.56-3,3.87-2,2.6-3.81,5.25-5.56,7.91q-1.32,2-2.5,4c-.8,1.34-1.55,2.68-2.23,4a39.55,39.55,0,0,0-3.11,7.8c-.07.25,0,.06,0,.05a.12.12,0,0,0,0-.08s-.05,0-.05.08a2.75,2.75,0,0,0,.13.87,12.91,12.91,0,0,0,1.45,3.13,51.23,51.23,0,0,0,5.49,7.21,198.59,198.59,0,0,0,14.1,14l.1.1a4.24,4.24,0,0,1-4.76,6.92,100.85,100.85,0,0,1-18.28-11.77,55.49,55.49,0,0,1-8.28-8.24,28.35,28.35,0,0,1-3.63-5.87,17.51,17.51,0,0,1-1.27-4.1,15.13,15.13,0,0,1-.25-2.51c0-.45,0-.9,0-1.37s.12-1,.16-1.23a48.37,48.37,0,0,1,3.47-11.78,80.44,80.44,0,0,1,5.16-10.15c1.88-3.22,3.94-6.26,6.08-9.22,1.09-1.48,2.18-2.94,3.34-4.36.57-.71,1.15-1.42,1.75-2.12s1.17-1.36,1.9-2.17a8.5,8.5,0,0,1,12.93,11Z" style="fill:#00AF90"></path><path d="M126.32,150.89l-1.45,1.79-1.5,1.91c-1,1.28-2,2.56-3,3.87-2,2.6-3.81,5.25-5.56,7.91q-1.32,2-2.5,4c-.8,1.34-1.55,2.68-2.23,4a39.55,39.55,0,0,0-3.11,7.8c-.07.25,0,.06,0,.05a.12.12,0,0,0,0-.08s-.05,0-.05.08a2.75,2.75,0,0,0,.13.87,12.91,12.91,0,0,0,1.45,3.13,51.23,51.23,0,0,0,5.49,7.21,198.59,198.59,0,0,0,14.1,14l.1.1a4.24,4.24,0,0,1-4.76,6.92,100.85,100.85,0,0,1-18.28-11.77,55.49,55.49,0,0,1-8.28-8.24,28.35,28.35,0,0,1-3.63-5.87,17.51,17.51,0,0,1-1.27-4.1,15.13,15.13,0,0,1-.25-2.51c0-.45,0-.9,0-1.37s.12-1,.16-1.23a48.37,48.37,0,0,1,3.47-11.78,80.44,80.44,0,0,1,5.16-10.15c1.88-3.22,3.94-6.26,6.08-9.22,1.09-1.48,2.18-2.94,3.34-4.36.57-.71,1.15-1.42,1.75-2.12s1.17-1.36,1.9-2.17a8.5,8.5,0,0,1,12.93,11Z" style="fill:#fff;opacity:0.6000000000000001"></path><path d="M131.56,210.17c-1.67-1.4-8.27-6.69-11.93-10.64-4,.46-9.46,4.93-11.52,7.32,5.16,4,13,9,16.65,8.78S134.91,213,131.56,210.17Z" style="fill:#263238"></path><path d="M128.93,209.23l4.57,1.64a8.68,8.68,0,0,1,4.18,3.21l2.84,4.11a2.07,2.07,0,0,1-.85,3.06l-4.56,2.05A2,2,0,0,1,133,223l-4-3.14s-3.77-2.67-5.24-6a2.24,2.24,0,0,1,.75-2.68l2.27-1.7A2.26,2.26,0,0,1,128.93,209.23Z" style="fill:#263238"></path><path d="M152.4,111.76c0,.7.34,1.27.8,1.28s.84-.55.86-1.25-.35-1.27-.81-1.28S152.41,111.06,152.4,111.76Z" style="fill:#263238"></path><path d="M151.69,113a24.87,24.87,0,0,0,3.21,6c-1.26,1.13-3.35.56-3.35.56Z" style="fill:#a02724"></path><path d="M149.94,107.83a.41.41,0,0,0,.3-.07,3.24,3.24,0,0,1,2.94-.47.41.41,0,0,0,.31-.76,4.1,4.1,0,0,0-3.71.55.42.42,0,0,0-.11.58A.46.46,0,0,0,149.94,107.83Z" style="fill:#263238"></path><path d="M132.14,114.43c.45,6.45-.06,19.47-5,23.12,0,0,1.21,5.26,12.9,6.73,12.86,1.61,6.95-5.61,6.95-5.61-6.81-2.56-6-7.75-4.14-12.48Z" style="fill:#b55b52"></path><path d="M164.7,403.25h-9.47a.84.84,0,0,0-.74.78l-1.71,10.15c-.18,1.06.43,2.06,1.25,2,3.41-.08,8.35-.34,12.64-.34,5,0,4.44.36,10.33.36,3.56,0,4.55-4.74,3.06-5.17-6.79-2-7.41-2.17-13.27-6.93A3.39,3.39,0,0,0,164.7,403.25Z" style="fill:#263238"></path><path d="M119.92,135.82a139,139,0,0,1,39,1,10.1,10.1,0,0,1,8.06,8.22c3.85,22.22-.14,53.53-3.62,75.1L113.49,219c-.3-6.5,2.55-40.16-2.13-71.69A10.09,10.09,0,0,1,119.92,135.82Z" style="fill:#00AF90"></path><path d="M119.92,135.82a139,139,0,0,1,39,1,10.1,10.1,0,0,1,8.06,8.22c3.85,22.22-.14,53.53-3.62,75.1L113.49,219c-.3-6.5,2.55-40.16-2.13-71.69A10.09,10.09,0,0,1,119.92,135.82Z" style="fill:#fff;opacity:0.5"></path><path d="M166.47,141.47l5.62,9.82c1.87,3.22,3.77,6.38,5.7,9.4a80.74,80.74,0,0,0,6.08,8.29,31.76,31.76,0,0,0,6.78,6.05l-3.25-.95c2.18.27,4.36.6,6.54.93s4.36.72,6.54,1.09c4.35.82,8.7,1.71,13,2.93h0a4.31,4.31,0,0,1-.48,8.4c-4.46.73-8.9,1.12-13.33,1.43-2.22.13-4.44.28-6.65.35s-4.43.16-6.64.18a5.71,5.71,0,0,1-2.64-.63l-.62-.33A43.6,43.6,0,0,1,172,180.06a76.84,76.84,0,0,1-8.16-9.9c-2.4-3.37-4.52-6.79-6.57-10.2s-3.93-6.86-5.74-10.33a8.5,8.5,0,0,1,14.91-8.16Z" style="fill:#00AF90"></path><path d="M166.47,141.47l5.62,9.82c1.87,3.22,3.77,6.38,5.7,9.4a80.74,80.74,0,0,0,6.08,8.29,31.76,31.76,0,0,0,6.78,6.05l-3.25-.95c2.18.27,4.36.6,6.54.93s4.36.72,6.54,1.09c4.35.82,8.7,1.71,13,2.93h0a4.31,4.31,0,0,1-.48,8.4c-4.46.73-8.9,1.12-13.33,1.43-2.22.13-4.44.28-6.65.35s-4.43.16-6.64.18a5.71,5.71,0,0,1-2.64-.63l-.62-.33A43.6,43.6,0,0,1,172,180.06a76.84,76.84,0,0,1-8.16-9.9c-2.4-3.37-4.52-6.79-6.57-10.2s-3.93-6.86-5.74-10.33a8.5,8.5,0,0,1,14.91-8.16Z" style="fill:#fff;opacity:0.7000000000000001"></path><path d="M157.18,126.54c-.19,3.81-3.74,7-6.14,6.83s-4.18-3.3-4-7.1,2.29-6.8,4.68-6.68S157.37,122.73,157.18,126.54Z" style="fill:#00AF90"></path><path d="M129.11,109.79c.35,8.6.12,13.65,4.36,18.15,6.39,6.76,17.07,3.05,19.3-5.48,2-7.67,1.09-20.44-7.24-24A11.74,11.74,0,0,0,129.11,109.79Z" style="fill:#b55b52"></path><path d="M143,220.17s-3.89,52-8.95,78c-3.44,17.72-6.42,64.67-14.33,84-1.44,3.52-4,6.71-7.73,6.71l-18.66-.77c-3.77-.93-3.46-4-3.26-7.9.8-15.31,9.75-65.49,14.48-86,1.35-23.62,3.39-56.74,9-75.13Z" style="fill:#00AF90"></path><g style="opacity:0.5"><path d="M143,220.17s-3.89,52-8.95,78c-3.44,17.72-6.42,64.67-14.33,84-1.44,3.52-4,6.71-7.73,6.71l-18.66-.77c-3.77-.93-3.46-4-3.26-7.9.8-15.31,9.75-65.49,14.48-86,1.35-23.62,3.39-56.74,9-75.13Z" style="fill:#fff"></path></g><path d="M135.53,249.71c-9,6.41-8.58,31.27-1.13,46.41,2.4-13.12,4.51-31.8,6-47.34A6.51,6.51,0,0,0,135.53,249.71Z" style="fill:#00AF90;opacity:0.2"></path><path d="M163.48,221s8.51,49.77,9.8,76.2c1.12,23,2.83,70.3,2.11,85a7.06,7.06,0,0,1-7.06,6.71H155a7.06,7.06,0,0,1-7.06-7c-.13-15.26-3.74-64.34-8-84.89-6.1-29.16-13.15-51.11-12.74-76.83Z" style="fill:#00AF90"></path><g style="opacity:0.5"><path d="M163.48,221s8.51,49.77,9.8,76.2c1.12,23,2.83,70.3,2.11,85a7.06,7.06,0,0,1-7.06,6.71H155a7.06,7.06,0,0,1-7.06-7c-.13-15.26-3.74-64.34-8-84.89-6.1-29.16-13.15-51.11-12.74-76.83Z" style="fill:#fff"></path></g><path d="M152.7,385.13s13.22-1.63,18.33.37c-1,3.22-3.21,21.32-.41,23.83l-16.33-1.45C155.57,400,152.7,385.13,152.7,385.13Z" style="fill:#263238"></path><path d="M101.2,403.25H91.73A.84.84,0,0,0,91,404l-1.71,10.15c-.18,1.06.43,2.06,1.25,2,3.41-.08,8.35-.34,12.64-.34,5,0,4.44.36,10.33.36,3.56,0,4.55-4.74,3.06-5.17-6.79-2-7.41-2.17-13.27-6.93A3.39,3.39,0,0,0,101.2,403.25Z" style="fill:#263238"></path><path d="M93.5,385.13s13.52-1.63,18.25.37c-1.61,3.22-7.23,21.32-4.9,23.83l-16-4.64C92.28,394.56,93.5,385.13,93.5,385.13Z" style="fill:#263238"></path><path d="M156.76,137c-3.79-1.54-3.27-8.65-2.21-12.31s-4,1.14-7.36-6.48c-2-4.57-1.41-8.62.49-11.39,1.29-1.89,5.34-1,4.38-6.17s-7.17-9.28-16.39-8.11c-14.07,1.78-13.72,15.29-10.78,23.11,5.2,13.8-.86,17-7.69,20.93C124.05,141,139.89,143.12,156.76,137Z" style="fill:#00AF90"></path><path d="M156.76,137c-3.79-1.54-3.27-8.65-2.21-12.31s-4,1.14-7.36-6.48c-2-4.57-1.41-8.62.49-11.39,1.29-1.89,5.34-1,4.38-6.17s-7.17-9.28-16.39-8.11c-14.07,1.78-13.72,15.29-10.78,23.11,5.2,13.8-.86,17-7.69,20.93C124.05,141,139.89,143.12,156.76,137Z" style="fill:#fff;opacity:0.5"></path><path d="M164.1,218.1a12.59,12.59,0,0,1,.45,5.4.53.53,0,0,1-.49.48c-3.67.34-30,2.46-51.49-2.43a.58.58,0,0,1-.42-.41,9,9,0,0,1,.75-6.08.54.54,0,0,1,.6-.28c3,.63,22.25,4.45,50.06,3A.55.55,0,0,1,164.1,218.1Z" style="fill:#263238"></path><path d="M158,109.79H122.8c-.58,1.42.75,3.54.75,3.54h35.17S159.17,111,158,109.79Z" style="fill:#263238"></path><path d="M142.18,149a1.39,1.39,0,0,1-.4-.06,1.49,1.49,0,0,1-1-1.84c1.64-5.87,9.25-12.43,17-12.43a1.5,1.5,0,0,1,0,3c-6.33,0-12.78,5.5-14.1,10.23A1.5,1.5,0,0,1,142.18,149Z" style="fill:#263238"></path><path d="M163.56,219.26l-.28,0c-12.81-2.4-23.51-13.5-24.88-25.82a1.5,1.5,0,0,1,3-.34c1.21,10.89,11.07,21.08,22.45,23.21a1.5,1.5,0,0,1-.27,3Z" style="fill:#263238"></path><path d="M108.79,155a1.49,1.49,0,0,1-1.46-1.17c-1.31-6,2.33-15.32,9.16-19a1.5,1.5,0,1,1,1.41,2.65c-5.59,3-8.7,10.86-7.64,15.66a1.5,1.5,0,0,1-1.14,1.79A1.84,1.84,0,0,1,108.79,155Z" style="fill:#263238"></path><rect x="97.41" y="136.78" width="47.33" height="100.44" rx="12" style="fill:#00AF90"></rect><rect x="96.52" y="148.07" width="38.2" height="80.09" rx="9.63" style="opacity:0.1"></rect><rect x="93.41" y="146.47" width="38.2" height="81.06" rx="9.68" style="fill:#00AF90"></rect><path d="M125.75,192.51l-10.06-23.83c-1.42-3.34-4.94-3.34-6.35,0L99.27,192.51c-1.41,3.33.35,7.51,3.17,7.51h20.14C125.4,200,127.16,195.84,125.75,192.51Zm-2,3.45a1.41,1.41,0,0,1-1.2.95H102.44a1.41,1.41,0,0,1-1.2-.95,2.48,2.48,0,0,1,0-1.9l10.07-23.83a1.33,1.33,0,0,1,1.2-.95,1.35,1.35,0,0,1,1.21.95l10.06,23.83A2.43,2.43,0,0,1,123.78,196Z" style="fill:#fff"></path><path d="M113.72,170.23a1.35,1.35,0,0,0-1.21-.95,1.33,1.33,0,0,0-1.2.95l-10.07,23.83a2.48,2.48,0,0,0,0,1.9,1.41,1.41,0,0,0,1.2.95h20.14a1.41,1.41,0,0,0,1.2-.95,2.43,2.43,0,0,0,0-1.9Z" style="fill:#fff;opacity:0.6000000000000001"></path><path d="M176.48,271.71a12.52,12.52,0,0,1-7.06-2.24c-6.39-4.34-9.46-13.78-8.4-25.89.56-6.38-.73-11.32-3.82-14.69-3.38-3.69-8.92-5.56-16.47-5.56a1,1,0,0,1,0-2c8.14,0,14.17,2.09,18,6.21,3.48,3.8,4.94,9.26,4.33,16.21-1,11.37,1.76,20.14,7.54,24.07a10.3,10.3,0,0,0,10.66.74c5.42-2.71,8.9-9.67,9.31-18.6l.16-3.81c.86-20,1.43-33.24,15.69-46.52a1,1,0,1,1,1.37,1.46c-13.67,12.73-14.22,25.63-15.06,45.15l-.16,3.8c-.44,9.67-4.33,17.26-10.41,20.31A12.58,12.58,0,0,1,176.48,271.71Z" style="fill:#263238"></path><path d="M176.48,271.71a12.52,12.52,0,0,1-7.06-2.24c-6.39-4.34-9.46-13.78-8.4-25.89.56-6.38-.73-11.32-3.82-14.69-3.38-3.69-8.92-5.56-16.47-5.56a1,1,0,0,1,0-2c8.14,0,14.17,2.09,18,6.21,3.48,3.8,4.94,9.26,4.33,16.21-1,11.37,1.76,20.14,7.54,24.07a10.3,10.3,0,0,0,10.66.74c5.42-2.71,8.9-9.67,9.31-18.6l.16-3.81c.86-20,1.43-33.24,15.69-46.52a1,1,0,1,1,1.37,1.46c-13.67,12.73-14.22,25.63-15.06,45.15l-.16,3.8c-.44,9.67-4.33,17.26-10.41,20.31A12.58,12.58,0,0,1,176.48,271.71Z" style="fill:#fff;opacity:0.2"></path><path d="M215.16,178.61h6.6a7.34,7.34,0,0,1,5,1.87l3.68,3.38c1,.87.7,2.63-.52,3.67l-4.75,4a2.42,2.42,0,0,1-2.39.54L218,190.2s-6.17-2-7.38-6.14Z" style="fill:#263238"></path><path d="M219,178.61a93.05,93.05,0,0,1-14.85-2.72c-3.15,2.49-5.59,11.11-6.08,14.23,6.48.67,14.27-.53,17.27-2.64S223.4,178.78,219,178.61Z" style="fill:#263238"></path><rect x="223.58" y="156.64" width="4.97" height="51.99" transform="translate(205.59 -107.27) rotate(47.03)" style="fill:#263238"></rect><polygon points="278.12 134.34 272.42 137.7 244.21 163.98 245.95 165.85 274.06 139.66 279.11 138.65 278.12 134.34" style="fill:#263238"></polygon><polygon points="278.12 134.34 272.42 137.7 244.21 163.98 245.95 165.85 274.06 139.66 279.11 138.65 278.12 134.34" style="fill:#fff;opacity:0.2"></polygon></g></svg>